<svg width="52" height="31" viewBox="0 0 52 31" fill="none" xmlns="http://www.w3.org/2000/svg">
<rect x="0.218262" y="0.3685" width="51.2007" height="29.763" rx="6" fill="#D9D9D9"/>
<path d="M37.6259 18.2218C35.9852 24.8026 29.3195 28.8072 22.738 27.1665C16.1594 25.5258 12.1544 18.8602 13.7955 12.2797C15.4354 5.69814 22.1007 1.69276 28.6804 3.33345C35.2616 4.97415 39.2662 11.6406 37.6255 18.2218H37.6259Z" fill="#F7931A"/>
<path d="M31.1268 13.5001C31.371 11.8655 30.1265 10.9868 28.4247 10.4006L28.9767 8.18644L27.6286 7.85054L27.0911 10.0064C26.7372 9.91811 26.3733 9.83481 26.0117 9.75227L26.5529 7.58221L25.2059 7.24632L24.6535 9.45976C24.3602 9.39297 24.0723 9.32694 23.7929 9.25746L23.7944 9.25055L21.9357 8.78644L21.5771 10.226C21.5771 10.226 22.5771 10.4552 22.556 10.4694C23.1019 10.6056 23.2009 10.9669 23.184 11.2532L22.5552 13.7757C22.5929 13.7853 22.6416 13.7991 22.6953 13.8206L22.5533 13.7853L21.6715 17.3189C21.6047 17.4847 21.4355 17.7335 21.0539 17.639C21.0673 17.6586 20.0742 17.3945 20.0742 17.3945L19.4051 18.9377L21.1595 19.3749C21.4857 19.4567 21.8055 19.5423 22.1199 19.6229L21.5621 21.8629L22.9084 22.1988L23.4612 19.983C23.8286 20.0828 24.1856 20.1749 24.5349 20.2617L23.9844 22.4671L25.3322 22.803L25.89 20.5677C28.1883 21.0026 29.9169 20.8272 30.6435 18.7488C31.2297 17.0751 30.6147 16.1097 29.4055 15.4797C30.2861 15.2759 30.9495 14.6966 31.1265 13.5001H31.1268ZM28.047 17.8183C27.6301 19.492 24.8124 18.5876 23.8984 18.3604L24.6385 15.3934C25.5522 15.6214 28.4815 16.0728 28.0474 17.8183H28.047ZM28.4635 13.4759C28.0835 14.9984 25.738 14.2248 24.9767 14.0352L25.6478 11.3442C26.409 11.5339 28.8597 11.8878 28.4635 13.4759Z" fill="white"/>
</svg>
