<svg width="52" height="31" viewBox="0 0 52 31" fill="none" xmlns="http://www.w3.org/2000/svg">
<rect x="0.218262" y="0.3685" width="51.2007" height="29.763" rx="6" fill="#D9D9D9"/>
<path d="M21.9901 8.35465L29.6462 8.35465L29.6462 22.1459H21.99L21.9901 8.35465Z" fill="#FF5F00"/>
<path d="M29.1608 15.25C29.1608 18.0475 27.854 20.5396 25.819 22.1456C27.3594 23.3631 29.2646 24.0238 31.2263 24.0209C36.0585 24.0209 39.9756 20.0941 39.9756 15.25C39.9756 10.4059 36.0585 6.47908 31.2263 6.47908C29.2646 6.47614 27.3593 7.1369 25.8189 8.35438C27.8537 9.96009 29.1608 12.4523 29.1608 15.25Z" fill="#EB001B"/>
<path d="M11.6611 15.25C11.6611 10.4059 15.5782 6.47907 20.4105 6.47907C22.3724 6.47619 24.2779 7.13693 25.8186 8.35437C23.783 9.96037 22.4762 12.4523 22.4762 15.25C22.4762 18.0477 23.783 20.5396 25.8186 22.1456C24.2779 23.363 22.3725 24.0238 20.4106 24.0209C15.5784 24.0209 11.6613 20.0941 11.6613 15.25" fill="#F79E1B"/>
</svg>
