<svg width="52" height="31" viewBox="0 0 52 31" fill="none" xmlns="http://www.w3.org/2000/svg">
<rect x="0.218262" y="0.3685" width="51.2007" height="29.763" rx="6" fill="#D9D9D9"/>
<path d="M23.3521 24.9878L23.7142 22.6879L22.9075 22.6692H19.0557L21.7325 5.69843C21.7405 5.64658 21.7668 5.59931 21.8067 5.56526C21.8466 5.5312 21.8975 5.51261 21.9499 5.51289H28.4447C30.6009 5.51289 32.0889 5.96151 32.8658 6.84699C33.23 7.26238 33.4619 7.69646 33.5741 8.17416C33.6918 8.6754 33.6939 9.27426 33.5789 10.0047L33.5706 10.058V10.526L33.9348 10.7323C34.2129 10.8731 34.4628 11.0637 34.6723 11.2944C34.9838 11.6496 35.1853 12.101 35.2705 12.6362C35.3584 13.1866 35.3294 13.8415 35.1853 14.583C35.0192 15.4359 34.7505 16.1788 34.3877 16.7866C34.0676 17.3312 33.6371 17.8028 33.124 18.1712C32.6421 18.5133 32.0695 18.7729 31.4221 18.939C30.7948 19.1024 30.0795 19.1848 29.295 19.1848H28.7895C28.4281 19.1848 28.0771 19.315 27.8015 19.5483C27.5263 19.7841 27.3437 20.1099 27.2863 20.4677L27.2482 20.6747L26.6085 24.7282L26.5794 24.8771C26.5718 24.9241 26.5586 24.9477 26.5392 24.9636C26.5204 24.9789 26.497 24.9875 26.4727 24.9878H23.3521Z" fill="#253B80"/>
<path d="M34.2797 10.112C34.2603 10.2359 34.2382 10.3626 34.2133 10.4927C33.3567 14.8897 30.4265 16.4086 26.684 16.4086H24.7785C24.3208 16.4086 23.9351 16.7409 23.8638 17.1923L22.8882 23.3789L22.6119 25.1325C22.6009 25.2021 22.6051 25.2732 22.6243 25.341C22.6434 25.4088 22.677 25.4716 22.7227 25.5251C22.7684 25.5787 22.8252 25.6217 22.8892 25.6512C22.9531 25.6807 23.0227 25.696 23.0932 25.6961H26.4728C26.873 25.6961 27.213 25.4053 27.276 25.0107L27.3092 24.839L27.9456 20.8014L27.9864 20.5798C28.0487 20.1838 28.3894 19.893 28.7896 19.893H29.2951C32.5695 19.893 35.1328 18.5638 35.882 14.7173C36.1949 13.1104 36.0329 11.7687 35.2048 10.825C34.9423 10.5331 34.6288 10.2915 34.2797 10.112Z" fill="#179BD7"/>
<path d="M33.3842 9.75473C33.1107 9.67562 32.8325 9.61388 32.5512 9.56988C31.9954 9.48447 31.4337 9.4435 30.8714 9.44734H25.7808C25.5871 9.44719 25.3997 9.51634 25.2525 9.6423C25.1054 9.76826 25.0081 9.94271 24.9783 10.1341L23.8954 16.9922L23.8643 17.1923C23.898 16.974 24.0088 16.7749 24.1765 16.6312C24.3443 16.4875 24.558 16.4085 24.7789 16.4086H26.6844C30.4269 16.4086 33.3572 14.889 34.2137 10.4927C34.2393 10.3626 34.2608 10.2359 34.2802 10.112C34.0542 9.99346 33.8186 9.89411 33.576 9.81496C33.5124 9.79386 33.4484 9.77378 33.3842 9.75473Z" fill="#222D65"/>
<path d="M24.978 10.1341C25.0075 9.94266 25.1048 9.76812 25.252 9.64223C25.3993 9.51633 25.5868 9.44743 25.7805 9.44803H30.8711C31.4742 9.44803 32.0372 9.48749 32.5509 9.57057C32.8986 9.6252 33.2415 9.70692 33.5764 9.81496C33.8291 9.89873 34.0638 9.99773 34.2806 10.112C34.5354 8.48709 34.2785 7.38077 33.3998 6.37898C32.4311 5.27612 30.6828 4.80396 28.4456 4.80396H21.9508C21.4938 4.80396 21.104 5.13627 21.0334 5.58835L18.3282 22.7336C18.3156 22.8132 18.3203 22.8946 18.3422 22.9722C18.3641 23.0498 18.4025 23.1217 18.4548 23.183C18.5071 23.2443 18.5721 23.2936 18.6452 23.3274C18.7184 23.3612 18.798 23.3788 18.8786 23.3789H22.8884L23.8951 16.9922L24.978 10.1341Z" fill="#253B80"/>
</svg>
