<svg width="10" height="6" viewBox="0 0 10 6" fill="none" xmlns="http://www.w3.org/2000/svg">
<path d="M0.27002 1.89165C-0.0483396 1.5733 -0.0483402 1.05713 0.270019 0.738772C0.588379 0.420413 1.10454 0.420413 1.4229 0.738772L5.29248 4.60835C5.61084 4.92671 5.61084 5.44287 5.29248 5.76123C4.97412 6.07959 4.45795 6.07959 4.13959 5.76123L0.27002 1.89165Z" fill="white"/>
<path d="M8.02871 0.73877C8.34707 0.42041 8.86323 0.42041 9.18159 0.738769C9.49995 1.05713 9.49995 1.57329 9.18159 1.89165L5.31201 5.76123C4.99366 6.07959 4.47749 6.07959 4.15913 5.76123C3.84077 5.44287 3.84077 4.9267 4.15913 4.60834L8.02871 0.73877Z" fill="white"/>
</svg>
