<svg width="22" height="23" viewBox="0 0 22 23" fill="none" xmlns="http://www.w3.org/2000/svg">
<path d="M20.2 11.8C20.2 17.1019 15.9019 21.4 10.6 21.4C5.29807 21.4 1 17.1019 1 11.8C1 6.49807 5.29807 2.2 10.6 2.2M15.4 11.8C15.4 14.451 13.251 16.6 10.6 16.6C7.94903 16.6 5.8 14.451 5.8 11.8C5.8 9.14903 7.94903 7 10.6 7M14.8426 7.36387L10.6 11.6065M21.2086 4.39411L17.3902 8.21249L14.8447 7.36396L13.9961 4.81838L17.8145 1L18.2388 3.96985L21.2086 4.39411Z" stroke="#15A655" stroke-width="1.5" stroke-linecap="round" stroke-linejoin="round"/>
</svg>
