<svg width="21" height="24" viewBox="0 0 21 24" fill="none" xmlns="http://www.w3.org/2000/svg">
<path d="M2.4075 22.7103C3.70674 22.8627 5.17035 23.6781 6.39133 23.8228C7.62013 23.9752 8.00364 23.0075 8.00364 23.0075C8.00364 23.0075 9.38898 22.7027 10.8448 22.6722C12.3005 22.6341 13.6781 22.9694 13.6781 22.9694C13.6781 22.9694 13.9442 23.5638 14.4451 23.8228C14.946 24.0896 16.0183 24.1277 16.707 23.419C17.3958 22.7103 19.2351 21.8111 20.2682 21.2548C21.3092 20.6909 21.1135 19.8374 20.4639 19.5784C19.8142 19.3193 19.2742 18.9078 19.3212 18.1229C19.3603 17.3456 18.742 16.8198 18.742 16.8198C18.742 16.8198 19.2742 15.1053 18.7811 13.6803C18.2802 12.2629 16.6366 9.98444 15.3686 8.2775C14.1007 6.56294 15.1808 4.58167 14.0224 2.04412C12.8719 -0.493424 9.88207 -0.341019 8.27758 0.741059C6.66526 1.82314 7.15835 4.50547 7.23662 5.77805C7.31489 7.04302 7.27575 7.94983 7.12704 8.2775C6.97833 8.60517 5.93737 9.80917 5.24862 10.815C4.55986 11.8285 4.05895 13.9165 3.55803 14.7776C3.06495 15.6311 3.40933 16.4159 3.40933 16.4159C3.40933 16.4159 3.06495 16.5302 2.79101 17.0941C2.5249 17.6504 1.99268 17.9171 1.02999 18.0924C0.0751201 18.2829 0.0751204 18.8849 0.302097 19.5555C0.5369 20.2261 0.302097 20.5995 0.0359865 21.4606C-0.237951 22.2988 1.10043 22.5579 2.4075 22.7103ZM15.9165 18.8011C16.5974 19.0907 17.5836 18.6868 17.881 18.3972C18.1784 18.1076 18.3898 17.6733 18.3898 17.6733C18.3898 17.6733 18.6872 17.8181 18.6559 18.2753C18.6246 18.7401 18.8594 19.4031 19.3055 19.6393C19.7516 19.8679 20.4326 20.188 20.0804 20.508C19.7203 20.8281 17.7245 21.613 17.1297 22.2226C16.5427 22.8322 15.76 23.3275 15.2904 23.1751C14.8129 23.0303 14.3981 22.3979 14.6016 21.4682C14.8129 20.5385 14.993 19.525 14.9616 18.9459C14.9303 18.3667 14.8129 17.5818 14.9616 17.4675C15.1104 17.3532 15.3452 17.4066 15.3452 17.4066C15.3452 17.4066 15.2356 18.5115 15.9165 18.8011ZM11.4866 3.11858C12.144 3.11858 12.6762 3.75106 12.6762 4.53595C12.6762 5.09223 12.4101 5.57231 12.0188 5.80091C11.917 5.76281 11.8153 5.71709 11.7057 5.67137C11.9405 5.55707 12.1049 5.2675 12.1049 4.93221C12.1049 4.49023 11.8309 4.13208 11.4787 4.13208C11.1422 4.13208 10.8526 4.49023 10.8526 4.93221C10.8526 5.09223 10.8917 5.25226 10.9622 5.3818C10.7587 5.29798 10.5708 5.22939 10.4221 5.17605C10.3438 4.98555 10.2969 4.77218 10.2969 4.54357C10.2969 3.75868 10.8291 3.11858 11.4866 3.11858ZM9.85859 5.56469C10.1795 5.61803 11.0717 5.99142 11.4005 6.11335C11.7292 6.22003 12.097 6.42578 12.0579 6.63152C12.0188 6.84489 11.8466 6.84489 11.4005 7.1116C10.9622 7.37069 9.99164 7.94983 9.6864 7.99555C9.38115 8.03365 9.20114 7.86601 8.87241 7.66026C8.54369 7.44689 7.92537 6.9592 8.08191 6.70011C8.08191 6.70011 8.56717 6.34195 8.77849 6.15907C8.98199 5.95332 9.52986 5.50373 9.85859 5.56469ZM8.44194 3.34719C8.95851 3.34719 9.38115 3.94919 9.38115 4.68836C9.38115 4.82552 9.3655 4.94744 9.34202 5.07699C9.21679 5.11509 9.08374 5.18367 8.95851 5.29036C8.89589 5.3437 8.84111 5.3818 8.78632 5.43514C8.86459 5.28274 8.89589 5.06937 8.86459 4.84076C8.79415 4.44451 8.51238 4.14732 8.24627 4.18542C7.97234 4.23114 7.80797 4.59691 7.87841 5.00079C7.94885 5.41228 8.22279 5.70947 8.50456 5.66375C8.52021 5.65613 8.53586 5.65613 8.55152 5.64851C8.41846 5.77043 8.29323 5.88474 8.168 5.97618C7.79232 5.80854 7.51838 5.29798 7.51838 4.69598C7.50273 3.94157 7.91755 3.34719 8.44194 3.34719ZM5.55386 13.0402C6.08608 12.2172 6.43046 10.4264 6.97051 9.83204C7.51056 9.23765 7.92537 7.97269 7.73753 7.40879C7.73753 7.40879 8.88807 8.74996 9.69423 8.52897C10.5004 8.30036 12.3005 6.9973 12.5667 7.21828C12.8328 7.44689 15.1338 12.362 15.3608 13.9317C15.5956 15.4939 15.2043 16.6979 15.2043 16.6979C15.2043 16.6979 14.3277 16.4693 14.2103 16.9951C14.1007 17.5209 14.1007 19.4259 14.1007 19.4259C14.1007 19.4259 12.911 21.0262 11.0717 21.2929C9.23244 21.552 8.30889 21.3615 8.30889 21.3615L7.27575 20.2108C7.27575 20.2108 8.08191 20.0965 7.96451 19.3116C7.85493 18.5344 5.51473 17.4523 5.09208 16.4769C4.66944 15.5015 5.01381 13.8632 5.55386 13.0402ZM0.998679 18.9154C1.0926 18.5344 2.28227 18.5344 2.74405 18.26C3.20583 17.9933 3.29192 17.2161 3.66761 17.0103C4.03547 16.797 4.70857 17.5437 4.98251 17.9629C5.25644 18.3744 6.2974 20.1651 6.72788 20.6147C7.15835 21.0643 7.55752 21.6587 7.43229 22.1997C7.31489 22.7331 6.66526 23.1294 6.66526 23.1294C6.08608 23.3047 4.46594 22.6265 3.73022 22.3216C2.99451 22.0168 1.12391 21.933 0.881278 21.6663C0.630821 21.3996 0.99868 20.7976 1.10043 20.2337C1.1787 19.6546 0.904758 19.304 0.998679 18.9154Z" fill="#919EAB"/>
</svg>
