<svg width="23" height="28" viewBox="0 0 23 28" fill="none" xmlns="http://www.w3.org/2000/svg"><path d="M14.8946 3.81533L14.8877 3.82349L14.8809 3.83181C14.5105 4.28674 13.9852 4.70378 13.4098 5.00482C13.0708 5.18222 12.7376 5.30737 12.4322 5.38088C12.5816 4.4119 13.1067 3.44846 13.6945 2.78625L13.6946 2.78628L13.7011 2.77881C14.3206 2.06686 15.2324 1.49009 16.1073 1.20037C15.962 2.15369 15.5078 3.09438 14.8946 3.81533ZM16.6651 7.7676C17.3189 7.7676 19.2683 7.82571 20.8196 9.37038C20.54 9.60712 20.2223 9.90706 19.9185 10.2619C19.0585 11.2663 18.2109 12.7908 18.2109 14.8792C18.2109 17.2895 19.2907 18.9432 20.3752 19.978C20.8679 20.4482 21.3662 20.7961 21.7754 21.0394C21.7284 21.1601 21.6748 21.2924 21.6143 21.4345C21.32 22.1261 20.8702 23.0328 20.241 23.9425C19.628 24.8168 19.0698 25.5863 18.4573 26.146C17.8628 26.6892 17.2964 26.9608 16.6679 26.9608C15.9502 26.9608 15.5189 26.7747 14.9004 26.5077L14.8583 26.4896C14.1738 26.1943 13.3465 25.8548 12.034 25.8548C10.7501 25.8548 9.86844 26.2038 9.15245 26.5036C9.13218 26.5121 9.11213 26.5205 9.09227 26.5288C8.41733 26.8117 7.97467 26.9972 7.34644 26.9972C6.80629 26.9972 6.29066 26.7631 5.69499 26.2171C5.08127 25.6545 4.48005 24.8519 3.7664 23.8599C2.24375 21.7128 1 18.3382 1 15.1704C1 10.2307 4.17132 7.8404 7.08649 7.8404C7.81483 7.8404 8.51687 8.07734 9.27841 8.3781C9.35673 8.40903 9.4375 8.44136 9.51982 8.47432C9.81225 8.59139 10.1243 8.71631 10.4156 8.81392C10.7924 8.94014 11.23 9.0556 11.6837 9.0556C12.1337 9.0556 12.5801 8.92957 12.9574 8.80062C13.2197 8.71098 13.5125 8.59607 13.7957 8.4849C13.918 8.43692 14.0385 8.38964 14.154 8.34538C14.9746 8.03091 15.7965 7.7676 16.6651 7.7676Z" stroke="#919EAB" stroke-width="2"></path></svg>