<svg width="10" height="10" viewBox="0 0 10 10" fill="none" xmlns="http://www.w3.org/2000/svg">
<path d="M3.99849 6.60585C3.99849 6.05356 3.55077 5.60585 2.99849 5.60585H1.67174C1.12412 5.60585 0.680176 5.16191 0.680176 4.61428C0.680176 4.06665 1.12411 3.62271 1.67174 3.62271H2.99848C3.55077 3.62271 3.99849 3.175 3.99849 2.62271V1.09962C3.99849 0.551995 4.44242 0.108055 4.99005 0.108055C5.53768 0.108055 5.98162 0.551994 5.98162 1.09962V2.62271C5.98162 3.175 6.42933 3.62271 6.98162 3.62271H8.328C8.87562 3.62271 9.31956 4.06665 9.31956 4.61428C9.31956 5.16191 8.87562 5.60585 8.328 5.60585H6.98162C6.42933 5.60585 5.98162 6.05356 5.98162 6.60585V8.14858C5.98162 8.6962 5.53768 9.14014 4.99005 9.14014C4.44242 9.14014 3.99849 8.6962 3.99849 8.14858V6.60585Z" fill="white"/>
</svg>
