<svg width="20" height="20" viewBox="0 0 20 20" fill="none" xmlns="http://www.w3.org/2000/svg">
<path d="M8.96031 1.72387C9.31745 0.758712 10.6825 0.758711 11.0397 1.72387L12.8173 6.52775C12.9296 6.83119 13.1688 7.07043 13.4723 7.18272L18.2761 8.96031C19.2413 9.31745 19.2413 10.6825 18.2761 11.0397L13.4723 12.8173C13.1688 12.9296 12.9296 13.1688 12.8173 13.4723L11.0397 18.2761C10.6826 19.2413 9.31745 19.2413 8.96031 18.2761L7.18272 13.4723C7.07043 13.1688 6.83119 12.9296 6.52775 12.8173L1.72387 11.0397C0.758712 10.6826 0.758711 9.31745 1.72387 8.96031L6.52775 7.18272C6.83119 7.07043 7.07043 6.83119 7.18272 6.52775L8.96031 1.72387Z" stroke="#15A655" stroke-width="1.5" stroke-linejoin="round"/>
</svg>
