<svg width="21" height="15" viewBox="0 0 21 15" fill="none" xmlns="http://www.w3.org/2000/svg">
<path d="M1 13.4336C2.09864 11.6011 4.50651 10.3469 8.26312 10.3469C12.0197 10.3469 14.4276 11.6011 15.5262 13.4336M16.2212 8.95736C18.2106 9.95204 19.2053 10.9467 20.2 12.9361M14.1522 1.35439C15.0883 1.85795 15.7246 2.84671 15.7246 3.9841C15.7246 5.08863 15.1245 6.05299 14.2326 6.56895M11.2472 3.98407C11.2472 5.63212 9.91117 6.96814 8.26312 6.96814C6.61506 6.96814 5.27905 5.63212 5.27905 3.98407C5.27905 2.33601 6.61506 1 8.26312 1C9.91117 1 11.2472 2.33601 11.2472 3.98407Z" stroke="#15A655" stroke-width="1.5" stroke-linecap="round" stroke-linejoin="round"/>
</svg>
